<svg id="visual" viewBox="0 0 1920 1080" width="1920" height="1080" xmlns="http://www.w3.org/2000/svg" xmlns:xlink="http://www.w3.org/1999/xlink" version="1.1"><rect x="0" y="0" width="1920" height="1080" fill="#080808"></rect><path d="M0 555L274 576L549 528L823 592L1097 594L1371 523L1646 451L1920 556L1920 1081L1646 1081L1371 1081L1097 1081L823 1081L549 1081L274 1081L0 1081Z" fill="#2f2f2f"></path><path d="M0 599L274 724L549 594L823 576L1097 500L1371 631L1646 519L1920 689L1920 1081L1646 1081L1371 1081L1097 1081L823 1081L549 1081L274 1081L0 1081Z" fill="#272727"></path><path d="M0 812L274 773L549 669L823 741L1097 725L1371 805L1646 743L1920 776L1920 1081L1646 1081L1371 1081L1097 1081L823 1081L549 1081L274 1081L0 1081Z" fill="#202020"></path><path d="M0 784L274 814L549 902L823 769L1097 746L1371 916L1646 847L1920 897L1920 1081L1646 1081L1371 1081L1097 1081L823 1081L549 1081L274 1081L0 1081Z" fill="#181818"></path><path d="M0 963L274 998L549 973L823 923L1097 899L1371 966L1646 873L1920 877L1920 1081L1646 1081L1371 1081L1097 1081L823 1081L549 1081L274 1081L0 1081Z" fill="#101010"></path></svg>