<svg id="visual" viewBox="0 0 960 540" width="960" height="540" xmlns="http://www.w3.org/2000/svg" xmlns:xlink="http://www.w3.org/1999/xlink" version="1.1"><g stroke-width="1" stroke-linejoin="bevel"><path d="M487 288L522 282L479 235Z" fill="#4d4c4c" stroke="#4d4c4c"></path><path d="M522 282L538 229L479 235Z" fill="#585757" stroke="#585757"></path><path d="M538 229L537 216L479 235Z" fill="#6e6e6e" stroke="#6e6e6e"></path><path d="M537 216L536 204L479 235Z" fill="#6e6e6e" stroke="#6e6e6e"></path><path d="M538 229L546 207L537 216Z" fill="#6e6e6e" stroke="#6e6e6e"></path><path d="M537 216L546 207L536 204Z" fill="#1d1a1a" stroke="#1d1a1a"></path><path d="M568 242L546 207L538 229Z" fill="#636363" stroke="#636363"></path><path d="M570 251L568 242L538 229Z" fill="#2f2d2d" stroke="#2f2d2d"></path><path d="M522 282L570 251L538 229Z" fill="#4d4c4c" stroke="#4d4c4c"></path><path d="M568 242L569 193L546 207Z" fill="#060000" stroke="#060000"></path><path d="M546 207L569 193L536 204Z" fill="#585757" stroke="#585757"></path><path d="M598 239L569 193L568 242Z" fill="#1d1a1a" stroke="#1d1a1a"></path><path d="M487 288L551 343L522 282Z" fill="#6e6e6e" stroke="#6e6e6e"></path><path d="M522 282L551 343L570 251Z" fill="#141010" stroke="#141010"></path><path d="M551 343L598 239L570 251Z" fill="#262323" stroke="#262323"></path><path d="M570 251L598 239L568 242Z" fill="#636363" stroke="#636363"></path><path d="M431 373L455 364L487 288Z" fill="#2f2d2d" stroke="#2f2d2d"></path><path d="M487 288L455 364L551 343Z" fill="#636363" stroke="#636363"></path><path d="M455 364L530 382L551 343Z" fill="#6e6e6e" stroke="#6e6e6e"></path><path d="M368 235L431 373L487 288Z" fill="#262323" stroke="#262323"></path><path d="M455 364L474 390L530 382Z" fill="#4d4c4c" stroke="#4d4c4c"></path><path d="M431 373L474 390L455 364Z" fill="#6e6e6e" stroke="#6e6e6e"></path><path d="M392 173L368 235L479 235Z" fill="#636363" stroke="#636363"></path><path d="M479 235L368 235L487 288Z" fill="#4d4c4c" stroke="#4d4c4c"></path><path d="M392 173L479 235L508 113Z" fill="#262323" stroke="#262323"></path><path d="M508 113L479 235L536 204Z" fill="#4d4c4c" stroke="#4d4c4c"></path><path d="M392 173L364 225L368 235Z" fill="#1d1a1a" stroke="#1d1a1a"></path><path d="M569 193L508 113L536 204Z" fill="#393737" stroke="#393737"></path><path d="M309 299L248 248L262 299Z" fill="#434141" stroke="#434141"></path><path d="M364 225L337 275L368 235Z" fill="#393737" stroke="#393737"></path><path d="M368 235L337 275L431 373Z" fill="#262323" stroke="#262323"></path><path d="M666 237L652 191L598 239Z" fill="#393737" stroke="#393737"></path><path d="M598 239L652 191L569 193Z" fill="#393737" stroke="#393737"></path><path d="M569 193L593 116L508 113Z" fill="#434141" stroke="#434141"></path><path d="M666 237L598 239L698 345Z" fill="#6e6e6e" stroke="#6e6e6e"></path><path d="M698 345L598 239L551 343Z" fill="#4d4c4c" stroke="#4d4c4c"></path><path d="M359 403L438 417L431 373Z" fill="#141010" stroke="#141010"></path><path d="M431 373L438 417L474 390Z" fill="#4d4c4c" stroke="#4d4c4c"></path><path d="M474 390L498 486L530 382Z" fill="#1d1a1a" stroke="#1d1a1a"></path><path d="M652 191L593 116L569 193Z" fill="#636363" stroke="#636363"></path><path d="M593 116L538 91L508 113Z" fill="#434141" stroke="#434141"></path><path d="M421 72L344 131L392 173Z" fill="#141010" stroke="#141010"></path><path d="M337 275L349 357L431 373Z" fill="#393737" stroke="#393737"></path><path d="M498 486L601 413L530 382Z" fill="#141010" stroke="#141010"></path><path d="M530 382L601 413L551 343Z" fill="#262323" stroke="#262323"></path><path d="M309 299L337 275L248 248Z" fill="#1d1a1a" stroke="#1d1a1a"></path><path d="M337 275L309 299L349 357Z" fill="#585757" stroke="#585757"></path><path d="M666 237L679 176L652 191Z" fill="#585757" stroke="#585757"></path><path d="M652 191L675 114L593 116Z" fill="#6e6e6e" stroke="#6e6e6e"></path><path d="M284 326L349 386L349 357Z" fill="#585757" stroke="#585757"></path><path d="M349 357L349 386L431 373Z" fill="#636363" stroke="#636363"></path><path d="M349 386L359 403L431 373Z" fill="#393737" stroke="#393737"></path><path d="M421 72L392 173L508 113Z" fill="#262323" stroke="#262323"></path><path d="M392 173L344 131L364 225Z" fill="#1d1a1a" stroke="#1d1a1a"></path><path d="M538 91L421 72L508 113Z" fill="#2f2d2d" stroke="#2f2d2d"></path><path d="M727 289L707 246L666 237Z" fill="#141010" stroke="#141010"></path><path d="M666 237L715 211L679 176Z" fill="#585757" stroke="#585757"></path><path d="M675 114L616 85L593 116Z" fill="#060000" stroke="#060000"></path><path d="M593 116L616 85L538 91Z" fill="#060000" stroke="#060000"></path><path d="M538 91L532 0L421 72Z" fill="#393737" stroke="#393737"></path><path d="M611 495L625 427L601 413Z" fill="#4d4c4c" stroke="#4d4c4c"></path><path d="M601 413L698 345L551 343Z" fill="#636363" stroke="#636363"></path><path d="M625 427L698 345L601 413Z" fill="#262323" stroke="#262323"></path><path d="M707 246L715 211L666 237Z" fill="#4d4c4c" stroke="#4d4c4c"></path><path d="M679 176L675 114L652 191Z" fill="#393737" stroke="#393737"></path><path d="M729 207L715 211L707 246Z" fill="#585757" stroke="#585757"></path><path d="M262 299L284 326L309 299Z" fill="#6e6e6e" stroke="#6e6e6e"></path><path d="M309 299L284 326L349 357Z" fill="#636363" stroke="#636363"></path><path d="M349 386L267 422L359 403Z" fill="#4d4c4c" stroke="#4d4c4c"></path><path d="M403 504L498 486L438 417Z" fill="#1d1a1a" stroke="#1d1a1a"></path><path d="M438 417L498 486L474 390Z" fill="#060000" stroke="#060000"></path><path d="M742 140L675 114L679 176Z" fill="#2f2d2d" stroke="#2f2d2d"></path><path d="M698 345L727 289L666 237Z" fill="#1d1a1a" stroke="#1d1a1a"></path><path d="M725 350L721 322L698 345Z" fill="#141010" stroke="#141010"></path><path d="M698 345L721 322L727 289Z" fill="#2f2d2d" stroke="#2f2d2d"></path><path d="M771 278L729 207L707 246Z" fill="#060000" stroke="#060000"></path><path d="M715 211L729 207L679 176Z" fill="#434141" stroke="#434141"></path><path d="M351 65L325 99L344 131Z" fill="#636363" stroke="#636363"></path><path d="M248 248L337 275L364 225Z" fill="#636363" stroke="#636363"></path><path d="M248 248L364 225L282 119Z" fill="#060000" stroke="#060000"></path><path d="M719 398L725 350L698 345Z" fill="#636363" stroke="#636363"></path><path d="M721 322L771 278L727 289Z" fill="#4d4c4c" stroke="#4d4c4c"></path><path d="M421 72L351 65L344 131Z" fill="#434141" stroke="#434141"></path><path d="M417 0L351 65L421 72Z" fill="#262323" stroke="#262323"></path><path d="M351 65L315 98L325 99Z" fill="#6e6e6e" stroke="#6e6e6e"></path><path d="M325 99L309 101L344 131Z" fill="#4d4c4c" stroke="#4d4c4c"></path><path d="M269 68L309 101L315 98Z" fill="#636363" stroke="#636363"></path><path d="M315 98L309 101L325 99Z" fill="#262323" stroke="#262323"></path><path d="M282 119L364 225L344 131Z" fill="#636363" stroke="#636363"></path><path d="M248 248L245 273L262 299Z" fill="#141010" stroke="#141010"></path><path d="M269 68L282 119L309 101Z" fill="#2f2d2d" stroke="#2f2d2d"></path><path d="M309 101L282 119L344 131Z" fill="#4d4c4c" stroke="#4d4c4c"></path><path d="M625 427L719 398L698 345Z" fill="#585757" stroke="#585757"></path><path d="M744 447L719 398L625 427Z" fill="#1d1a1a" stroke="#1d1a1a"></path><path d="M498 486L611 495L601 413Z" fill="#434141" stroke="#434141"></path><path d="M572 0L538 91L616 85Z" fill="#393737" stroke="#393737"></path><path d="M572 0L532 0L538 91Z" fill="#434141" stroke="#434141"></path><path d="M717 98L658 48L675 114Z" fill="#2f2d2d" stroke="#2f2d2d"></path><path d="M675 114L658 48L616 85Z" fill="#6e6e6e" stroke="#6e6e6e"></path><path d="M299 491L403 504L359 403Z" fill="#6e6e6e" stroke="#6e6e6e"></path><path d="M359 403L403 504L438 417Z" fill="#6e6e6e" stroke="#6e6e6e"></path><path d="M498 486L557 540L611 495Z" fill="#1d1a1a" stroke="#1d1a1a"></path><path d="M267 422L349 386L284 326Z" fill="#2f2d2d" stroke="#2f2d2d"></path><path d="M658 48L572 0L616 85Z" fill="#060000" stroke="#060000"></path><path d="M830 183L742 140L729 207Z" fill="#6e6e6e" stroke="#6e6e6e"></path><path d="M729 207L742 140L679 176Z" fill="#2f2d2d" stroke="#2f2d2d"></path><path d="M771 278L707 246L727 289Z" fill="#636363" stroke="#636363"></path><path d="M742 140L717 98L675 114Z" fill="#1d1a1a" stroke="#1d1a1a"></path><path d="M786 363L721 322L725 350Z" fill="#060000" stroke="#060000"></path><path d="M786 363L771 278L721 322Z" fill="#141010" stroke="#141010"></path><path d="M532 0L417 0L421 72Z" fill="#1d1a1a" stroke="#1d1a1a"></path><path d="M351 65L269 68L315 98Z" fill="#6e6e6e" stroke="#6e6e6e"></path><path d="M245 273L236 325L262 299Z" fill="#141010" stroke="#141010"></path><path d="M262 299L236 325L284 326Z" fill="#141010" stroke="#141010"></path><path d="M175 295L236 325L245 273Z" fill="#2f2d2d" stroke="#2f2d2d"></path><path d="M572 0L531 -14L532 0Z" fill="#060000" stroke="#060000"></path><path d="M532 0L531 -14L417 0Z" fill="#434141" stroke="#434141"></path><path d="M631 540L634 499L611 495Z" fill="#141010" stroke="#141010"></path><path d="M611 495L634 499L625 427Z" fill="#585757" stroke="#585757"></path><path d="M456 540L543 540L498 486Z" fill="#141010" stroke="#141010"></path><path d="M236 325L267 422L284 326Z" fill="#060000" stroke="#060000"></path><path d="M394 540L456 540L403 504Z" fill="#434141" stroke="#434141"></path><path d="M403 504L456 540L498 486Z" fill="#4d4c4c" stroke="#4d4c4c"></path><path d="M543 540L557 540L498 486Z" fill="#262323" stroke="#262323"></path><path d="M823 151L731 78L742 140Z" fill="#2f2d2d" stroke="#2f2d2d"></path><path d="M742 140L731 78L717 98Z" fill="#585757" stroke="#585757"></path><path d="M717 98L731 78L658 48Z" fill="#1d1a1a" stroke="#1d1a1a"></path><path d="M658 48L674 0L572 0Z" fill="#393737" stroke="#393737"></path><path d="M842 315L799 244L771 278Z" fill="#434141" stroke="#434141"></path><path d="M771 278L799 244L729 207Z" fill="#1d1a1a" stroke="#1d1a1a"></path><path d="M310 0L269 68L351 65Z" fill="#060000" stroke="#060000"></path><path d="M282 119L192 187L248 248Z" fill="#393737" stroke="#393737"></path><path d="M248 248L175 295L245 273Z" fill="#262323" stroke="#262323"></path><path d="M342 540L394 540L403 504Z" fill="#2f2d2d" stroke="#2f2d2d"></path><path d="M744 447L786 363L719 398Z" fill="#585757" stroke="#585757"></path><path d="M719 398L786 363L725 350Z" fill="#393737" stroke="#393737"></path><path d="M236 325L248 431L267 422Z" fill="#060000" stroke="#060000"></path><path d="M267 422L299 491L359 403Z" fill="#585757" stroke="#585757"></path><path d="M240 465L299 491L267 422Z" fill="#060000" stroke="#060000"></path><path d="M634 499L744 447L625 427Z" fill="#262323" stroke="#262323"></path><path d="M739 540L744 447L634 499Z" fill="#262323" stroke="#262323"></path><path d="M557 540L631 540L611 495Z" fill="#262323" stroke="#262323"></path><path d="M702 0L674 0L658 48Z" fill="#262323" stroke="#262323"></path><path d="M572 0L674 0L531 -14Z" fill="#2f2d2d" stroke="#2f2d2d"></path><path d="M187 149L192 187L282 119Z" fill="#060000" stroke="#060000"></path><path d="M236 325L111 407L248 431Z" fill="#6e6e6e" stroke="#6e6e6e"></path><path d="M417 0L310 0L351 65Z" fill="#434141" stroke="#434141"></path><path d="M269 68L187 149L282 119Z" fill="#2f2d2d" stroke="#2f2d2d"></path><path d="M531 -14L310 0L417 0Z" fill="#1d1a1a" stroke="#1d1a1a"></path><path d="M299 491L342 540L403 504Z" fill="#4d4c4c" stroke="#4d4c4c"></path><path d="M192 187L175 295L248 248Z" fill="#141010" stroke="#141010"></path><path d="M731 78L702 0L658 48Z" fill="#6e6e6e" stroke="#6e6e6e"></path><path d="M674 0L854 -22L531 -14Z" fill="#141010" stroke="#141010"></path><path d="M718 0L702 0L731 78Z" fill="#2f2d2d" stroke="#2f2d2d"></path><path d="M155 104L187 149L269 68Z" fill="#393737" stroke="#393737"></path><path d="M192 187L158 189L175 295Z" fill="#141010" stroke="#141010"></path><path d="M248 431L240 465L267 422Z" fill="#141010" stroke="#141010"></path><path d="M299 491L314 540L342 540Z" fill="#2f2d2d" stroke="#2f2d2d"></path><path d="M213 489L240 465L248 431Z" fill="#434141" stroke="#434141"></path><path d="M268 540L314 540L299 491Z" fill="#060000" stroke="#060000"></path><path d="M314 540L315 541L342 540Z" fill="#4d4c4c" stroke="#4d4c4c"></path><path d="M342 540L315 541L394 540Z" fill="#1d1a1a" stroke="#1d1a1a"></path><path d="M394 540L142 559L456 540Z" fill="#2f2d2d" stroke="#2f2d2d"></path><path d="M456 540L142 559L543 540Z" fill="#434141" stroke="#434141"></path><path d="M543 540L142 559L557 540Z" fill="#262323" stroke="#262323"></path><path d="M557 540L995 558L631 540Z" fill="#060000" stroke="#060000"></path><path d="M763 0L718 0L731 78Z" fill="#4d4c4c" stroke="#4d4c4c"></path><path d="M702 0L854 -22L674 0Z" fill="#1d1a1a" stroke="#1d1a1a"></path><path d="M889 250L830 183L799 244Z" fill="#636363" stroke="#636363"></path><path d="M799 244L830 183L729 207Z" fill="#4d4c4c" stroke="#4d4c4c"></path><path d="M830 183L823 151L742 140Z" fill="#393737" stroke="#393737"></path><path d="M744 447L816 387L786 363Z" fill="#393737" stroke="#393737"></path><path d="M786 363L842 315L771 278Z" fill="#4d4c4c" stroke="#4d4c4c"></path><path d="M816 387L842 315L786 363Z" fill="#060000" stroke="#060000"></path><path d="M187 149L158 189L192 187Z" fill="#393737" stroke="#393737"></path><path d="M240 465L268 540L299 491Z" fill="#1d1a1a" stroke="#1d1a1a"></path><path d="M314 540L268 540L315 541Z" fill="#434141" stroke="#434141"></path><path d="M250 540L268 540L240 465Z" fill="#636363" stroke="#636363"></path><path d="M111 407L213 489L248 431Z" fill="#2f2d2d" stroke="#2f2d2d"></path><path d="M995 558L739 540L631 540Z" fill="#2f2d2d" stroke="#2f2d2d"></path><path d="M631 540L739 540L634 499Z" fill="#2f2d2d" stroke="#2f2d2d"></path><path d="M744 447L873 458L816 387Z" fill="#434141" stroke="#434141"></path><path d="M823 151L763 0L731 78Z" fill="#2f2d2d" stroke="#2f2d2d"></path><path d="M718 0L854 -22L702 0Z" fill="#141010" stroke="#141010"></path><path d="M100 154L158 189L187 149Z" fill="#393737" stroke="#393737"></path><path d="M100 154L131 206L158 189Z" fill="#262323" stroke="#262323"></path><path d="M158 189L131 206L175 295Z" fill="#2f2d2d" stroke="#2f2d2d"></path><path d="M175 295L111 407L236 325Z" fill="#6e6e6e" stroke="#6e6e6e"></path><path d="M268 540L142 559L315 541Z" fill="#141010" stroke="#141010"></path><path d="M213 489L250 540L240 465Z" fill="#1d1a1a" stroke="#1d1a1a"></path><path d="M873 458L867 345L816 387Z" fill="#393737" stroke="#393737"></path><path d="M816 387L867 345L842 315Z" fill="#393737" stroke="#393737"></path><path d="M842 315L880 297L799 244Z" fill="#1d1a1a" stroke="#1d1a1a"></path><path d="M830 183L911 154L823 151Z" fill="#434141" stroke="#434141"></path><path d="M171 21L155 104L269 68Z" fill="#636363" stroke="#636363"></path><path d="M867 345L880 297L842 315Z" fill="#262323" stroke="#262323"></path><path d="M880 297L889 250L799 244Z" fill="#636363" stroke="#636363"></path><path d="M823 151L854 -22L763 0Z" fill="#585757" stroke="#585757"></path><path d="M11 274L111 278L0 231Z" fill="#393737" stroke="#393737"></path><path d="M131 206L111 278L175 295Z" fill="#1d1a1a" stroke="#1d1a1a"></path><path d="M310 0L201 0L269 68Z" fill="#262323" stroke="#262323"></path><path d="M173 -17L201 0L310 0Z" fill="#141010" stroke="#141010"></path><path d="M201 0L171 21L269 68Z" fill="#393737" stroke="#393737"></path><path d="M155 104L100 154L187 149Z" fill="#636363" stroke="#636363"></path><path d="M960 275L907 260L880 297Z" fill="#585757" stroke="#585757"></path><path d="M880 297L907 260L889 250Z" fill="#6e6e6e" stroke="#6e6e6e"></path><path d="M889 250L911 154L830 183Z" fill="#060000" stroke="#060000"></path><path d="M0 71L100 154L155 104Z" fill="#636363" stroke="#636363"></path><path d="M47 337L111 407L111 278Z" fill="#393737" stroke="#393737"></path><path d="M111 278L111 407L175 295Z" fill="#6e6e6e" stroke="#6e6e6e"></path><path d="M213 489L142 559L250 540Z" fill="#393737" stroke="#393737"></path><path d="M840 540L873 458L744 447Z" fill="#393737" stroke="#393737"></path><path d="M960 384L960 275L880 297Z" fill="#2f2d2d" stroke="#2f2d2d"></path><path d="M960 225L911 154L889 250Z" fill="#393737" stroke="#393737"></path><path d="M201 0L173 -17L171 21Z" fill="#262323" stroke="#262323"></path><path d="M171 21L130 11L155 104Z" fill="#060000" stroke="#060000"></path><path d="M531 -14L173 -17L310 0Z" fill="#4d4c4c" stroke="#4d4c4c"></path><path d="M739 540L840 540L744 447Z" fill="#2f2d2d" stroke="#2f2d2d"></path><path d="M995 558L840 540L739 540Z" fill="#585757" stroke="#585757"></path><path d="M922 478L900 451L873 458Z" fill="#434141" stroke="#434141"></path><path d="M873 458L900 451L867 345Z" fill="#6e6e6e" stroke="#6e6e6e"></path><path d="M960 140L932 131L911 154Z" fill="#2f2d2d" stroke="#2f2d2d"></path><path d="M132 0L130 11L171 21Z" fill="#636363" stroke="#636363"></path><path d="M995 558L850 540L840 540Z" fill="#434141" stroke="#434141"></path><path d="M840 540L850 540L873 458Z" fill="#585757" stroke="#585757"></path><path d="M173 -17L132 0L171 21Z" fill="#060000" stroke="#060000"></path><path d="M111 278L131 206L0 231Z" fill="#2f2d2d" stroke="#2f2d2d"></path><path d="M960 225L889 250L907 260Z" fill="#4d4c4c" stroke="#4d4c4c"></path><path d="M911 154L932 131L823 151Z" fill="#060000" stroke="#060000"></path><path d="M932 131L854 -22L823 151Z" fill="#060000" stroke="#060000"></path><path d="M763 0L854 -22L718 0Z" fill="#434141" stroke="#434141"></path><path d="M531 -14L895 -28L173 -17Z" fill="#393737" stroke="#393737"></path><path d="M11 274L47 337L111 278Z" fill="#6e6e6e" stroke="#6e6e6e"></path><path d="M131 206L100 154L0 231Z" fill="#393737" stroke="#393737"></path><path d="M960 384L880 297L867 345Z" fill="#434141" stroke="#434141"></path><path d="M960 275L960 225L907 260Z" fill="#393737" stroke="#393737"></path><path d="M250 540L142 559L268 540Z" fill="#585757" stroke="#585757"></path><path d="M315 541L142 559L394 540Z" fill="#393737" stroke="#393737"></path><path d="M123 540L142 559L213 489Z" fill="#262323" stroke="#262323"></path><path d="M123 540L213 489L111 407Z" fill="#585757" stroke="#585757"></path><path d="M86 540L123 540L111 407Z" fill="#434141" stroke="#434141"></path><path d="M960 225L960 140L911 154Z" fill="#393737" stroke="#393737"></path><path d="M930 0L895 -28L854 -22Z" fill="#1d1a1a" stroke="#1d1a1a"></path><path d="M850 540L922 478L873 458Z" fill="#2f2d2d" stroke="#2f2d2d"></path><path d="M900 451L960 384L867 345Z" fill="#636363" stroke="#636363"></path><path d="M960 476L960 384L900 451Z" fill="#141010" stroke="#141010"></path><path d="M960 140L960 127L932 131Z" fill="#393737" stroke="#393737"></path><path d="M930 0L854 -22L932 131Z" fill="#4d4c4c" stroke="#4d4c4c"></path><path d="M854 -22L895 -28L531 -14Z" fill="#1d1a1a" stroke="#1d1a1a"></path><path d="M8 171L0 99L0 165Z" fill="#6e6e6e" stroke="#6e6e6e"></path><path d="M47 337L24 395L111 407Z" fill="#060000" stroke="#060000"></path><path d="M0 324L24 395L47 337Z" fill="#4d4c4c" stroke="#4d4c4c"></path><path d="M8 171L100 154L0 99Z" fill="#393737" stroke="#393737"></path><path d="M0 518L86 540L111 407Z" fill="#1d1a1a" stroke="#1d1a1a"></path><path d="M123 540L86 540L142 559Z" fill="#2f2d2d" stroke="#2f2d2d"></path><path d="M8 171L0 231L100 154Z" fill="#4d4c4c" stroke="#4d4c4c"></path><path d="M11 274L0 321L47 337Z" fill="#1d1a1a" stroke="#1d1a1a"></path><path d="M960 52L930 0L932 131Z" fill="#060000" stroke="#060000"></path><path d="M-36 350L0 321L11 274Z" fill="#060000" stroke="#060000"></path><path d="M0 321L0 324L47 337Z" fill="#141010" stroke="#141010"></path><path d="M960 127L960 52L932 131Z" fill="#434141" stroke="#434141"></path><path d="M960 502L960 476L922 478Z" fill="#6e6e6e" stroke="#6e6e6e"></path><path d="M922 478L960 476L900 451Z" fill="#4d4c4c" stroke="#4d4c4c"></path><path d="M8 171L-34 210L0 231Z" fill="#636363" stroke="#636363"></path><path d="M0 71L155 104L130 11Z" fill="#262323" stroke="#262323"></path><path d="M960 52L939 0L930 0Z" fill="#141010" stroke="#141010"></path><path d="M930 0L939 0L895 -28Z" fill="#141010" stroke="#141010"></path><path d="M960 540L960 502L922 478Z" fill="#262323" stroke="#262323"></path><path d="M173 -17L46 0L132 0Z" fill="#585757" stroke="#585757"></path><path d="M132 0L46 0L130 11Z" fill="#2f2d2d" stroke="#2f2d2d"></path><path d="M0 71L0 99L100 154Z" fill="#6e6e6e" stroke="#6e6e6e"></path><path d="M960 52L960 0L939 0Z" fill="#636363" stroke="#636363"></path><path d="M939 0L960 0L895 -28Z" fill="#393737" stroke="#393737"></path><path d="M46 0L0 71L130 11Z" fill="#060000" stroke="#060000"></path><path d="M0 71L-34 210L0 99Z" fill="#1d1a1a" stroke="#1d1a1a"></path><path d="M0 99L-34 210L0 165Z" fill="#6e6e6e" stroke="#6e6e6e"></path><path d="M0 165L-34 210L8 171Z" fill="#585757" stroke="#585757"></path><path d="M0 231L-34 210L11 274Z" fill="#262323" stroke="#262323"></path><path d="M0 321L-36 350L0 324Z" fill="#141010" stroke="#141010"></path><path d="M995 558L960 540L850 540Z" fill="#393737" stroke="#393737"></path><path d="M850 540L960 540L922 478Z" fill="#585757" stroke="#585757"></path><path d="M-34 210L-36 350L11 274Z" fill="#585757" stroke="#585757"></path><path d="M0 324L-36 350L24 395Z" fill="#393737" stroke="#393737"></path><path d="M24 395L0 518L111 407Z" fill="#1d1a1a" stroke="#1d1a1a"></path><path d="M173 -17L14 -8L46 0Z" fill="#4d4c4c" stroke="#4d4c4c"></path><path d="M46 0L0 0L0 71Z" fill="#434141" stroke="#434141"></path><path d="M0 71L-5 0L-34 210Z" fill="#434141" stroke="#434141"></path><path d="M995 558L985 540L960 540Z" fill="#434141" stroke="#434141"></path><path d="M960 540L985 540L960 502Z" fill="#434141" stroke="#434141"></path><path d="M960 502L985 540L960 476Z" fill="#4d4c4c" stroke="#4d4c4c"></path><path d="M960 476L985 540L960 384Z" fill="#393737" stroke="#393737"></path><path d="M960 384L995 558L960 275Z" fill="#2f2d2d" stroke="#2f2d2d"></path><path d="M960 275L995 558L960 225Z" fill="#636363" stroke="#636363"></path><path d="M960 225L995 558L960 140Z" fill="#060000" stroke="#060000"></path><path d="M960 140L995 558L960 127Z" fill="#585757" stroke="#585757"></path><path d="M960 127L995 558L960 52Z" fill="#2f2d2d" stroke="#2f2d2d"></path><path d="M960 52L995 558L960 0Z" fill="#141010" stroke="#141010"></path><path d="M14 -8L0 0L46 0Z" fill="#6e6e6e" stroke="#6e6e6e"></path><path d="M86 540L0 540L142 559Z" fill="#636363" stroke="#636363"></path><path d="M-36 350L0 518L24 395Z" fill="#4d4c4c" stroke="#4d4c4c"></path><path d="M-36 350L0 523L0 518Z" fill="#585757" stroke="#585757"></path><path d="M0 518L0 523L86 540Z" fill="#141010" stroke="#141010"></path><path d="M14 -8L-5 0L0 0Z" fill="#393737" stroke="#393737"></path><path d="M0 0L-5 0L0 71Z" fill="#060000" stroke="#060000"></path><path d="M-36 350L0 540L0 523Z" fill="#393737" stroke="#393737"></path><path d="M0 523L0 540L86 540Z" fill="#141010" stroke="#141010"></path><path d="M142 559L995 558L557 540Z" fill="#2f2d2d" stroke="#2f2d2d"></path><path d="M985 540L995 558L960 384Z" fill="#262323" stroke="#262323"></path></g></svg>