<svg id="visual" viewBox="0 0 960 540" width="960" height="540" xmlns="http://www.w3.org/2000/svg" xmlns:xlink="http://www.w3.org/1999/xlink" version="1.1"><rect x="0" y="0" width="960" height="540" fill="#080808"></rect><path d="M0 325L137 304L274 268L411 324L549 319L686 239L823 263L960 268L960 541L823 541L686 541L549 541L411 541L274 541L137 541L0 541Z" fill="#2f2f2f"></path><path d="M0 298L137 302L274 383L411 321L549 314L686 366L823 292L960 299L960 541L823 541L686 541L549 541L411 541L274 541L137 541L0 541Z" fill="#272727"></path><path d="M0 346L137 425L274 349L411 405L549 344L686 352L823 412L960 344L960 541L823 541L686 541L549 541L411 541L274 541L137 541L0 541Z" fill="#202020"></path><path d="M0 468L137 465L274 405L411 460L549 458L686 407L823 399L960 446L960 541L823 541L686 541L549 541L411 541L274 541L137 541L0 541Z" fill="#181818"></path><path d="M0 468L137 450L274 461L411 480L549 484L686 489L823 505L960 459L960 541L823 541L686 541L549 541L411 541L274 541L137 541L0 541Z" fill="#101010"></path></svg>